<svg id="레이어_1" data-name="레이어 1" xmlns="http://www.w3.org/2000/svg" viewBox="0 0 53.68 52.95"><defs><style>.cls-1{fill:none;}.cls-2{fill:#8600cc;}</style></defs><rect class="cls-1" width="53.68" height="52.95"/><path class="cls-2" d="M51.53,36.35a7.94,7.94,0,0,0-3-2.88A8.22,8.22,0,0,0,51,30.59,8.66,8.66,0,0,0,52,26.45a10.68,10.68,0,0,0-.73-4,8.17,8.17,0,0,0-2.1-3.07,9.71,9.71,0,0,0-3.32-2,12.47,12.47,0,0,0-4.3-.71H16.9v5.79h8.23v8.13c0,.58-.31.87-.92.87h-4.5a12.83,12.83,0,0,1-4.94-.89A10.11,10.11,0,0,1,11.09,28a11.51,11.51,0,0,1-2.3-3.9,14.79,14.79,0,0,1-.79-5,13.73,13.73,0,0,1,.82-4.76A10.87,10.87,0,0,1,15.09,7.9a13.32,13.32,0,0,1,5.25-1,21.23,21.23,0,0,1,3.77.31q1.74.31,3.39.75a1.41,1.41,0,0,0,1.35-.07A5.26,5.26,0,0,0,30,6a5.71,5.71,0,0,0,.58-2.13c0-.42-.38-.77-1-1.07a18.6,18.6,0,0,0-4-1.3A25.61,25.61,0,0,0,20.29,1,22.36,22.36,0,0,0,13,2.19,17.37,17.37,0,0,0,7,5.65a16.46,16.46,0,0,0-4.14,5.68,19,19,0,0,0-1.52,7.84,21.16,21.16,0,0,0,1.3,7.65,15.52,15.52,0,0,0,9.51,9.31,22.17,22.17,0,0,0,7.63,1.24h5a3.35,3.35,0,0,0,.9-.14v9.11a3.67,3.67,0,0,0,.63,1.86A8.48,8.48,0,0,0,27.77,50a11.8,11.8,0,0,0,2,1.57,4,4,0,0,0,2.13.75h9.87a12.46,12.46,0,0,0,4.67-.82,9.85,9.85,0,0,0,3.46-2.28A9.69,9.69,0,0,0,52,45.78a12.69,12.69,0,0,0,.72-4.33A9.39,9.39,0,0,0,51.53,36.35ZM32.37,22.58h8.47a5,5,0,0,1,3.19,1,3.4,3.4,0,0,1,1.26,2.83q0,4.37-4.06,4.36H32.37Zm8.76,23.86H33.29a.82.82,0,0,1-.92-.92V36.61h9.15A4.7,4.7,0,0,1,45,37.75a5.12,5.12,0,0,1,1.13,3.7Q46.11,46.45,41.13,46.44Z" transform="translate(0 -0.2)"/></svg>